<mxfile host="app.diagrams.net" modified="2020-07-20T16:22:05.618Z" agent="5.0 (Windows NT 10.0; Win64; x64) AppleWebKit/537.36 (KHTML, like Gecko) Chrome/84.0.4147.89 Safari/537.36" etag="wbBIXgxOFlu609gOIoNw" version="13.4.6" type="github" pages="3">
  <diagram id="CkkIYPFHx_Zix4FCcnl0" name="Page-1">
    <mxGraphModel dx="700" dy="752" grid="1" gridSize="10" guides="1" tooltips="1" connect="1" arrows="1" fold="1" page="1" pageScale="1" pageWidth="827" pageHeight="1169" math="0" shadow="0">
      <root>
        <mxCell id="0" />
        <mxCell id="1" parent="0" />
        <mxCell id="xHmnuKQRnZCIUz-yJjaE-11" style="edgeStyle=orthogonalEdgeStyle;rounded=0;orthogonalLoop=1;jettySize=auto;html=1;dashed=1;endArrow=block;endFill=0;" parent="1" source="xHmnuKQRnZCIUz-yJjaE-1" target="xHmnuKQRnZCIUz-yJjaE-10" edge="1">
          <mxGeometry relative="1" as="geometry" />
        </mxCell>
        <mxCell id="xHmnuKQRnZCIUz-yJjaE-10" value="«interface»&lt;br&gt;&lt;b&gt;Writable&lt;/b&gt;" style="html=1;" parent="1" vertex="1">
          <mxGeometry x="160" y="150" width="110" height="50" as="geometry" />
        </mxCell>
        <mxCell id="xHmnuKQRnZCIUz-yJjaE-1" value="Point" style="swimlane;fontStyle=1;align=center;verticalAlign=top;childLayout=stackLayout;horizontal=1;startSize=26;horizontalStack=0;resizeParent=1;resizeParentMax=0;resizeLast=0;collapsible=1;marginBottom=0;" parent="1" vertex="1">
          <mxGeometry x="70" y="250" width="290" height="372" as="geometry" />
        </mxCell>
        <mxCell id="xHmnuKQRnZCIUz-yJjaE-2" value="- coordinates: double[]" style="text;strokeColor=none;fillColor=none;align=left;verticalAlign=top;spacingLeft=4;spacingRight=4;overflow=hidden;rotatable=0;points=[[0,0.5],[1,0.5]];portConstraint=eastwest;" parent="xHmnuKQRnZCIUz-yJjaE-1" vertex="1">
          <mxGeometry y="26" width="290" height="26" as="geometry" />
        </mxCell>
        <mxCell id="xHmnuKQRnZCIUz-yJjaE-5" value="- count: int" style="text;strokeColor=none;fillColor=none;align=left;verticalAlign=top;spacingLeft=4;spacingRight=4;overflow=hidden;rotatable=0;points=[[0,0.5],[1,0.5]];portConstraint=eastwest;" parent="xHmnuKQRnZCIUz-yJjaE-1" vertex="1">
          <mxGeometry y="52" width="290" height="26" as="geometry" />
        </mxCell>
        <mxCell id="xHmnuKQRnZCIUz-yJjaE-3" value="" style="line;strokeWidth=1;fillColor=none;align=left;verticalAlign=middle;spacingTop=-1;spacingLeft=3;spacingRight=3;rotatable=0;labelPosition=right;points=[];portConstraint=eastwest;" parent="xHmnuKQRnZCIUz-yJjaE-1" vertex="1">
          <mxGeometry y="78" width="290" height="8" as="geometry" />
        </mxCell>
        <mxCell id="xHmnuKQRnZCIUz-yJjaE-4" value="+ Point()" style="text;strokeColor=none;fillColor=none;align=left;verticalAlign=top;spacingLeft=4;spacingRight=4;overflow=hidden;rotatable=0;points=[[0,0.5],[1,0.5]];portConstraint=eastwest;" parent="xHmnuKQRnZCIUz-yJjaE-1" vertex="1">
          <mxGeometry y="86" width="290" height="26" as="geometry" />
        </mxCell>
        <mxCell id="xHmnuKQRnZCIUz-yJjaE-8" value="+ Point(Point)" style="text;strokeColor=none;fillColor=none;align=left;verticalAlign=top;spacingLeft=4;spacingRight=4;overflow=hidden;rotatable=0;points=[[0,0.5],[1,0.5]];portConstraint=eastwest;" parent="xHmnuKQRnZCIUz-yJjaE-1" vertex="1">
          <mxGeometry y="112" width="290" height="26" as="geometry" />
        </mxCell>
        <mxCell id="xHmnuKQRnZCIUz-yJjaE-6" value="+ getCoordinates(): double[]" style="text;strokeColor=none;fillColor=none;align=left;verticalAlign=top;spacingLeft=4;spacingRight=4;overflow=hidden;rotatable=0;points=[[0,0.5],[1,0.5]];portConstraint=eastwest;" parent="xHmnuKQRnZCIUz-yJjaE-1" vertex="1">
          <mxGeometry y="138" width="290" height="26" as="geometry" />
        </mxCell>
        <mxCell id="xHmnuKQRnZCIUz-yJjaE-14" value="+ getCount(): double" style="text;strokeColor=none;fillColor=none;align=left;verticalAlign=top;spacingLeft=4;spacingRight=4;overflow=hidden;rotatable=0;points=[[0,0.5],[1,0.5]];portConstraint=eastwest;" parent="xHmnuKQRnZCIUz-yJjaE-1" vertex="1">
          <mxGeometry y="164" width="290" height="26" as="geometry" />
        </mxCell>
        <mxCell id="xHmnuKQRnZCIUz-yJjaE-16" value="+ setCoordinates(double[]): void" style="text;strokeColor=none;fillColor=none;align=left;verticalAlign=top;spacingLeft=4;spacingRight=4;overflow=hidden;rotatable=0;points=[[0,0.5],[1,0.5]];portConstraint=eastwest;" parent="xHmnuKQRnZCIUz-yJjaE-1" vertex="1">
          <mxGeometry y="190" width="290" height="26" as="geometry" />
        </mxCell>
        <mxCell id="xHmnuKQRnZCIUz-yJjaE-21" value="+ setCount(int): void" style="text;strokeColor=none;fillColor=none;align=left;verticalAlign=top;spacingLeft=4;spacingRight=4;overflow=hidden;rotatable=0;points=[[0,0.5],[1,0.5]];portConstraint=eastwest;" parent="xHmnuKQRnZCIUz-yJjaE-1" vertex="1">
          <mxGeometry y="216" width="290" height="26" as="geometry" />
        </mxCell>
        <mxCell id="xHmnuKQRnZCIUz-yJjaE-17" value="+ parse(String): void" style="text;strokeColor=none;fillColor=none;align=left;verticalAlign=top;spacingLeft=4;spacingRight=4;overflow=hidden;rotatable=0;points=[[0,0.5],[1,0.5]];portConstraint=eastwest;" parent="xHmnuKQRnZCIUz-yJjaE-1" vertex="1">
          <mxGeometry y="242" width="290" height="26" as="geometry" />
        </mxCell>
        <mxCell id="xHmnuKQRnZCIUz-yJjaE-18" value="+ add(Point): void" style="text;strokeColor=none;fillColor=none;align=left;verticalAlign=top;spacingLeft=4;spacingRight=4;overflow=hidden;rotatable=0;points=[[0,0.5],[1,0.5]];portConstraint=eastwest;" parent="xHmnuKQRnZCIUz-yJjaE-1" vertex="1">
          <mxGeometry y="268" width="290" height="26" as="geometry" />
        </mxCell>
        <mxCell id="xHmnuKQRnZCIUz-yJjaE-20" value="+ getDistance(Point): double" style="text;strokeColor=none;fillColor=none;align=left;verticalAlign=top;spacingLeft=4;spacingRight=4;overflow=hidden;rotatable=0;points=[[0,0.5],[1,0.5]];portConstraint=eastwest;" parent="xHmnuKQRnZCIUz-yJjaE-1" vertex="1">
          <mxGeometry y="294" width="290" height="26" as="geometry" />
        </mxCell>
        <mxCell id="xHmnuKQRnZCIUz-yJjaE-15" value="+  write(DataOutput): void" style="text;strokeColor=none;fillColor=none;align=left;verticalAlign=top;spacingLeft=4;spacingRight=4;overflow=hidden;rotatable=0;points=[[0,0.5],[1,0.5]];portConstraint=eastwest;" parent="xHmnuKQRnZCIUz-yJjaE-1" vertex="1">
          <mxGeometry y="320" width="290" height="26" as="geometry" />
        </mxCell>
        <mxCell id="xHmnuKQRnZCIUz-yJjaE-13" value="+ readFields(DataInput): void" style="text;strokeColor=none;fillColor=none;align=left;verticalAlign=top;spacingLeft=4;spacingRight=4;overflow=hidden;rotatable=0;points=[[0,0.5],[1,0.5]];portConstraint=eastwest;" parent="xHmnuKQRnZCIUz-yJjaE-1" vertex="1">
          <mxGeometry y="346" width="290" height="26" as="geometry" />
        </mxCell>
      </root>
    </mxGraphModel>
  </diagram>
  <diagram id="TQK9ALZqHLrtuiVHRkl8" name="Page-2">
    <mxGraphModel dx="1422" dy="713" grid="1" gridSize="10" guides="1" tooltips="1" connect="1" arrows="1" fold="1" page="1" pageScale="1" pageWidth="827" pageHeight="1169" math="0" shadow="0">
      <root>
        <mxCell id="Gw9I8jApdF2Htz42jpap-0" />
        <mxCell id="Gw9I8jApdF2Htz42jpap-1" parent="Gw9I8jApdF2Htz42jpap-0" />
        <mxCell id="MzmEzGx-wgNOPJODGRZ_-0" style="edgeStyle=orthogonalEdgeStyle;rounded=0;orthogonalLoop=1;jettySize=auto;html=1;dashed=1;endArrow=block;endFill=0;" edge="1" parent="Gw9I8jApdF2Htz42jpap-1" source="MzmEzGx-wgNOPJODGRZ_-2" target="MzmEzGx-wgNOPJODGRZ_-1">
          <mxGeometry relative="1" as="geometry" />
        </mxCell>
        <mxCell id="MzmEzGx-wgNOPJODGRZ_-1" value="«interface»&lt;br&gt;&lt;b&gt;WritableComparable&lt;/b&gt;" style="html=1;" vertex="1" parent="Gw9I8jApdF2Htz42jpap-1">
          <mxGeometry x="145" y="150" width="140" height="50" as="geometry" />
        </mxCell>
        <mxCell id="MzmEzGx-wgNOPJODGRZ_-2" value="Centroid" style="swimlane;fontStyle=1;align=center;verticalAlign=top;childLayout=stackLayout;horizontal=1;startSize=26;horizontalStack=0;resizeParent=1;resizeParentMax=0;resizeLast=0;collapsible=1;marginBottom=0;" vertex="1" parent="Gw9I8jApdF2Htz42jpap-1">
          <mxGeometry x="70" y="250" width="290" height="320" as="geometry" />
        </mxCell>
        <mxCell id="MzmEzGx-wgNOPJODGRZ_-3" value="- id: Text" style="text;strokeColor=none;fillColor=none;align=left;verticalAlign=top;spacingLeft=4;spacingRight=4;overflow=hidden;rotatable=0;points=[[0,0.5],[1,0.5]];portConstraint=eastwest;" vertex="1" parent="MzmEzGx-wgNOPJODGRZ_-2">
          <mxGeometry y="26" width="290" height="26" as="geometry" />
        </mxCell>
        <mxCell id="MzmEzGx-wgNOPJODGRZ_-4" value="- p: Point" style="text;strokeColor=none;fillColor=none;align=left;verticalAlign=top;spacingLeft=4;spacingRight=4;overflow=hidden;rotatable=0;points=[[0,0.5],[1,0.5]];portConstraint=eastwest;" vertex="1" parent="MzmEzGx-wgNOPJODGRZ_-2">
          <mxGeometry y="52" width="290" height="26" as="geometry" />
        </mxCell>
        <mxCell id="MzmEzGx-wgNOPJODGRZ_-5" value="" style="line;strokeWidth=1;fillColor=none;align=left;verticalAlign=middle;spacingTop=-1;spacingLeft=3;spacingRight=3;rotatable=0;labelPosition=right;points=[];portConstraint=eastwest;" vertex="1" parent="MzmEzGx-wgNOPJODGRZ_-2">
          <mxGeometry y="78" width="290" height="8" as="geometry" />
        </mxCell>
        <mxCell id="MzmEzGx-wgNOPJODGRZ_-6" value="+ Centroid()" style="text;strokeColor=none;fillColor=none;align=left;verticalAlign=top;spacingLeft=4;spacingRight=4;overflow=hidden;rotatable=0;points=[[0,0.5],[1,0.5]];portConstraint=eastwest;" vertex="1" parent="MzmEzGx-wgNOPJODGRZ_-2">
          <mxGeometry y="86" width="290" height="26" as="geometry" />
        </mxCell>
        <mxCell id="MzmEzGx-wgNOPJODGRZ_-7" value="+ Centroid(Text, Point)" style="text;strokeColor=none;fillColor=none;align=left;verticalAlign=top;spacingLeft=4;spacingRight=4;overflow=hidden;rotatable=0;points=[[0,0.5],[1,0.5]];portConstraint=eastwest;" vertex="1" parent="MzmEzGx-wgNOPJODGRZ_-2">
          <mxGeometry y="112" width="290" height="26" as="geometry" />
        </mxCell>
        <mxCell id="MzmEzGx-wgNOPJODGRZ_-8" value="+ Centroid(String)" style="text;strokeColor=none;fillColor=none;align=left;verticalAlign=top;spacingLeft=4;spacingRight=4;overflow=hidden;rotatable=0;points=[[0,0.5],[1,0.5]];portConstraint=eastwest;" vertex="1" parent="MzmEzGx-wgNOPJODGRZ_-2">
          <mxGeometry y="138" width="290" height="26" as="geometry" />
        </mxCell>
        <mxCell id="MzmEzGx-wgNOPJODGRZ_-9" value="+ getId(): Text" style="text;strokeColor=none;fillColor=none;align=left;verticalAlign=top;spacingLeft=4;spacingRight=4;overflow=hidden;rotatable=0;points=[[0,0.5],[1,0.5]];portConstraint=eastwest;" vertex="1" parent="MzmEzGx-wgNOPJODGRZ_-2">
          <mxGeometry y="164" width="290" height="26" as="geometry" />
        </mxCell>
        <mxCell id="MzmEzGx-wgNOPJODGRZ_-10" value="+ getPoint(): Point" style="text;strokeColor=none;fillColor=none;align=left;verticalAlign=top;spacingLeft=4;spacingRight=4;overflow=hidden;rotatable=0;points=[[0,0.5],[1,0.5]];portConstraint=eastwest;" vertex="1" parent="MzmEzGx-wgNOPJODGRZ_-2">
          <mxGeometry y="190" width="290" height="26" as="geometry" />
        </mxCell>
        <mxCell id="MzmEzGx-wgNOPJODGRZ_-11" value="+ toString(): String" style="text;strokeColor=none;fillColor=none;align=left;verticalAlign=top;spacingLeft=4;spacingRight=4;overflow=hidden;rotatable=0;points=[[0,0.5],[1,0.5]];portConstraint=eastwest;" vertex="1" parent="MzmEzGx-wgNOPJODGRZ_-2">
          <mxGeometry y="216" width="290" height="26" as="geometry" />
        </mxCell>
        <mxCell id="MzmEzGx-wgNOPJODGRZ_-12" value="+ compareTo(Centroid): int" style="text;strokeColor=none;fillColor=none;align=left;verticalAlign=top;spacingLeft=4;spacingRight=4;overflow=hidden;rotatable=0;points=[[0,0.5],[1,0.5]];portConstraint=eastwest;" vertex="1" parent="MzmEzGx-wgNOPJODGRZ_-2">
          <mxGeometry y="242" width="290" height="26" as="geometry" />
        </mxCell>
        <mxCell id="MzmEzGx-wgNOPJODGRZ_-15" value="+  write(DataOutput): void" style="text;strokeColor=none;fillColor=none;align=left;verticalAlign=top;spacingLeft=4;spacingRight=4;overflow=hidden;rotatable=0;points=[[0,0.5],[1,0.5]];portConstraint=eastwest;" vertex="1" parent="MzmEzGx-wgNOPJODGRZ_-2">
          <mxGeometry y="268" width="290" height="26" as="geometry" />
        </mxCell>
        <mxCell id="MzmEzGx-wgNOPJODGRZ_-16" value="+ readFields(DataInput): void" style="text;strokeColor=none;fillColor=none;align=left;verticalAlign=top;spacingLeft=4;spacingRight=4;overflow=hidden;rotatable=0;points=[[0,0.5],[1,0.5]];portConstraint=eastwest;" vertex="1" parent="MzmEzGx-wgNOPJODGRZ_-2">
          <mxGeometry y="294" width="290" height="26" as="geometry" />
        </mxCell>
      </root>
    </mxGraphModel>
  </diagram>
  <diagram id="yiSP7vsA7RyYRbXtW1iw" name="Page-3">
    <mxGraphModel dx="1422" dy="713" grid="1" gridSize="10" guides="1" tooltips="1" connect="1" arrows="1" fold="1" page="1" pageScale="1" pageWidth="827" pageHeight="1169" math="0" shadow="0">
      <root>
        <mxCell id="vBSBxp__uWg3JHuj3us6-0" />
        <mxCell id="vBSBxp__uWg3JHuj3us6-1" parent="vBSBxp__uWg3JHuj3us6-0" />
        <mxCell id="WTdn-6nC7p13l9LXQ_cG-0" value="CentroidList" style="swimlane;fontStyle=1;align=center;verticalAlign=top;childLayout=stackLayout;horizontal=1;startSize=26;horizontalStack=0;resizeParent=1;resizeParentMax=0;resizeLast=0;collapsible=1;marginBottom=0;" vertex="1" parent="vBSBxp__uWg3JHuj3us6-1">
          <mxGeometry x="70" y="250" width="290" height="164" as="geometry" />
        </mxCell>
        <mxCell id="WTdn-6nC7p13l9LXQ_cG-1" value="- centroids: List&lt;Centroid&gt;" style="text;strokeColor=none;fillColor=none;align=left;verticalAlign=top;spacingLeft=4;spacingRight=4;overflow=hidden;rotatable=0;points=[[0,0.5],[1,0.5]];portConstraint=eastwest;" vertex="1" parent="WTdn-6nC7p13l9LXQ_cG-0">
          <mxGeometry y="26" width="290" height="26" as="geometry" />
        </mxCell>
        <mxCell id="WTdn-6nC7p13l9LXQ_cG-3" value="" style="line;strokeWidth=1;fillColor=none;align=left;verticalAlign=middle;spacingTop=-1;spacingLeft=3;spacingRight=3;rotatable=0;labelPosition=right;points=[];portConstraint=eastwest;" vertex="1" parent="WTdn-6nC7p13l9LXQ_cG-0">
          <mxGeometry y="52" width="290" height="8" as="geometry" />
        </mxCell>
        <mxCell id="WTdn-6nC7p13l9LXQ_cG-4" value="+ CentroidList()" style="text;strokeColor=none;fillColor=none;align=left;verticalAlign=top;spacingLeft=4;spacingRight=4;overflow=hidden;rotatable=0;points=[[0,0.5],[1,0.5]];portConstraint=eastwest;" vertex="1" parent="WTdn-6nC7p13l9LXQ_cG-0">
          <mxGeometry y="60" width="290" height="26" as="geometry" />
        </mxCell>
        <mxCell id="WTdn-6nC7p13l9LXQ_cG-7" value="+ getCentroids(): List&lt;Centroid&gt;" style="text;strokeColor=none;fillColor=none;align=left;verticalAlign=top;spacingLeft=4;spacingRight=4;overflow=hidden;rotatable=0;points=[[0,0.5],[1,0.5]];portConstraint=eastwest;" vertex="1" parent="WTdn-6nC7p13l9LXQ_cG-0">
          <mxGeometry y="86" width="290" height="26" as="geometry" />
        </mxCell>
        <mxCell id="WTdn-6nC7p13l9LXQ_cG-8" value="+ add(String): void" style="text;strokeColor=none;fillColor=none;align=left;verticalAlign=top;spacingLeft=4;spacingRight=4;overflow=hidden;rotatable=0;points=[[0,0.5],[1,0.5]];portConstraint=eastwest;" vertex="1" parent="WTdn-6nC7p13l9LXQ_cG-0">
          <mxGeometry y="112" width="290" height="26" as="geometry" />
        </mxCell>
        <mxCell id="WTdn-6nC7p13l9LXQ_cG-9" value="+ closest(Point): Centroid" style="text;strokeColor=none;fillColor=none;align=left;verticalAlign=top;spacingLeft=4;spacingRight=4;overflow=hidden;rotatable=0;points=[[0,0.5],[1,0.5]];portConstraint=eastwest;" vertex="1" parent="WTdn-6nC7p13l9LXQ_cG-0">
          <mxGeometry y="138" width="290" height="26" as="geometry" />
        </mxCell>
      </root>
    </mxGraphModel>
  </diagram>
</mxfile>
